<svg width="513" height="419" viewBox="0 0 513 419" fill="none" xmlns="http://www.w3.org/2000/svg">
<path d="M345.626 121.018C309.16 121.236 272.129 119.539 237.491 109.925C202.853 100.312 172.219 82.1718 144.37 60.9868C126.137 47.197 109.558 36.2348 85.8856 37.8878C62.7402 39.1039 40.6014 47.7369 22.7456 62.5093C-7.36665 88.871 -2.79759 137.592 9.2125 171.871C27.3147 223.507 82.4044 259.351 129.183 282.711C183.272 309.725 242.669 325.429 302.241 334.434C354.459 342.351 421.515 348.137 466.727 314.032C508.284 282.755 519.685 211.239 509.502 162.953C507.024 148.691 499.428 135.823 488.137 126.76C458.938 105.445 415.423 119.67 382.613 120.409C370.647 120.67 358.071 120.975 345.626 121.018Z" fill="#DFE8F8"/>
<path d="M271.346 419C359.546 419 431.046 414.559 431.046 409.082C431.046 403.604 359.546 399.164 271.346 399.164C183.147 399.164 111.647 403.604 111.647 409.082C111.647 414.559 183.147 419 271.346 419Z" fill="#E7EFFF"/>
<path d="M148.33 3H380.264C386.035 3 391.569 5.29156 395.649 9.37057C399.729 13.4496 402.022 18.9819 402.022 24.7505V300.59C402.022 306.359 399.729 311.891 395.649 315.97C391.569 320.049 386.035 322.341 380.264 322.341H118.61C112.839 322.341 107.305 320.049 103.225 315.97C99.1446 311.891 96.8523 306.359 96.8523 300.59V54.9837L148.33 3Z" fill="white" stroke="#C3D3F1" stroke-width="4.34762" stroke-linecap="round" stroke-linejoin="round"/>
<path d="M400.977 137.418H161.82V324.994H400.977V137.418Z" fill="#D8E3FC"/>
<path d="M96.8523 54.9837H139.018C141.492 54.9722 143.86 53.9817 145.606 52.229C147.351 50.4763 148.33 48.1039 148.33 45.631V3L96.8523 54.9837Z" fill="#DDE8FC" stroke="#C3D3F1" stroke-width="4.34762" stroke-linecap="round" stroke-linejoin="round"/>
<path d="M399.802 77.5172H163.256C154.051 77.5172 146.589 84.9765 146.589 94.1781V144.77C146.589 153.971 154.051 161.431 163.256 161.431H399.802C409.007 161.431 416.468 153.971 416.468 144.77V94.1781C416.468 84.9765 409.007 77.5172 399.802 77.5172Z" fill="#F1F6FF" stroke="#C3D3F1" stroke-width="4.34762" stroke-linecap="round" stroke-linejoin="round"/>
<path d="M192.541 134.112C200.568 134.112 207.075 127.607 207.075 119.583C207.075 111.558 200.568 105.053 192.541 105.053C184.514 105.053 178.007 111.558 178.007 119.583C178.007 127.607 184.514 134.112 192.541 134.112Z" fill="#8CA5E0"/>
<path d="M238.232 134.112C246.259 134.112 252.766 127.607 252.766 119.583C252.766 111.558 246.259 105.053 238.232 105.053C230.205 105.053 223.698 111.558 223.698 119.583C223.698 127.607 230.205 134.112 238.232 134.112Z" fill="#8CA5E0"/>
<path d="M283.878 134.112C291.905 134.112 298.412 127.607 298.412 119.583C298.412 111.558 291.905 105.053 283.878 105.053C275.852 105.053 269.344 111.558 269.344 119.583C269.344 127.607 275.852 134.112 283.878 134.112Z" fill="#8CA5E0"/>
<path d="M399.802 170.522H163.256C154.051 170.522 146.589 177.982 146.589 187.183V237.775C146.589 246.976 154.051 254.436 163.256 254.436H399.802C409.007 254.436 416.468 246.976 416.468 237.775V187.183C416.468 177.982 409.007 170.522 399.802 170.522Z" fill="#F1F6FF" stroke="#C3D3F1" stroke-width="4.34762" stroke-linecap="round" stroke-linejoin="round"/>
<path d="M192.541 227.161C200.568 227.161 207.075 220.656 207.075 212.631C207.075 204.607 200.568 198.102 192.541 198.102C184.514 198.102 178.007 204.607 178.007 212.631C178.007 220.656 184.514 227.161 192.541 227.161Z" fill="#8CA5E0"/>
<path d="M238.232 227.161C246.259 227.161 252.766 220.656 252.766 212.631C252.766 204.607 246.259 198.102 238.232 198.102C230.205 198.102 223.698 204.607 223.698 212.631C223.698 220.656 230.205 227.161 238.232 227.161Z" fill="#8CA5E0"/>
<path d="M283.878 227.161C291.905 227.161 298.412 220.656 298.412 212.631C298.412 204.607 291.905 198.102 283.878 198.102C275.852 198.102 269.344 204.607 269.344 212.631C269.344 220.656 275.852 227.161 283.878 227.161Z" fill="#8CA5E0"/>
<path d="M399.802 263.571H163.256C154.051 263.571 146.589 271.03 146.589 280.232V330.823C146.589 340.025 154.051 347.484 163.256 347.484H399.802C409.007 347.484 416.468 340.025 416.468 330.823V280.232C416.468 271.03 409.007 263.571 399.802 263.571Z" fill="#F1F6FF" stroke="#C3D3F1" stroke-width="4.34762" stroke-linecap="round" stroke-linejoin="round"/>
<path d="M192.541 320.166C200.568 320.166 207.075 313.661 207.075 305.636C207.075 297.612 200.568 291.107 192.541 291.107C184.514 291.107 178.007 297.612 178.007 305.636C178.007 313.661 184.514 320.166 192.541 320.166Z" fill="#8CA5E0"/>
<path d="M238.232 320.166C246.259 320.166 252.766 313.661 252.766 305.636C252.766 297.612 246.259 291.107 238.232 291.107C230.205 291.107 223.698 297.612 223.698 305.636C223.698 313.661 230.205 320.166 238.232 320.166Z" fill="#8CA5E0"/>
<path d="M283.878 320.166C291.905 320.166 298.412 313.661 298.412 305.636C298.412 297.612 291.905 291.107 283.878 291.107C275.852 291.107 269.344 297.612 269.344 305.636C269.344 313.661 275.852 320.166 283.878 320.166Z" fill="#8CA5E0"/>
<path d="M393.883 289.236L417.904 313.249" stroke="#266BD3" stroke-width="10" stroke-linecap="round" stroke-linejoin="round"/>
<path d="M415.221 301.592L407.764 309.39C404.409 312.898 404.534 318.46 408.044 321.814L472.84 383.737C476.349 387.09 481.913 386.965 485.268 383.457L492.725 375.659C496.079 372.151 495.954 366.588 492.445 363.235L427.649 301.312C424.139 297.959 418.575 298.084 415.221 301.592Z" fill="url(#paint0_linear_3210_13358)" stroke="#266BD3" stroke-width="10" stroke-linecap="round"/>
<path d="M329.831 313.989C379.65 313.989 420.037 273.615 420.037 223.811C420.037 174.007 379.65 133.633 329.831 133.633C280.011 133.633 239.625 174.007 239.625 223.811C239.625 273.615 280.011 313.989 329.831 313.989Z" stroke="#266BD3" stroke-width="10" stroke-linecap="round" stroke-linejoin="round"/>
<mask id="mask0_3210_13358" style="mask-type:alpha" maskUnits="userSpaceOnUse" x="242" y="136" width="174" height="174">
<path d="M329.108 307.046C375.515 307.046 413.135 269.453 413.135 223.08C413.135 176.707 375.515 139.114 329.108 139.114C282.701 139.114 245.08 176.707 245.08 223.08C245.08 269.453 282.701 307.046 329.108 307.046Z" fill="#D9D9D9" stroke="#266BD3" stroke-width="4.34762" stroke-linecap="round" stroke-linejoin="round"/>
</mask>
<g mask="url(#mask0_3210_13358)">
<path opacity="0.6" fill-rule="evenodd" clip-rule="evenodd" d="M392.405 138.287L251.017 279.623C245.693 270.083 242.072 259.96 240.103 249.496L362.267 127.369C372.727 129.414 382.861 133.025 392.405 138.287" fill="white"/>
<path opacity="0.6" fill-rule="evenodd" clip-rule="evenodd" d="M435.919 174.228L288.091 314.424C282.797 310.92 277.758 306.977 273.059 302.52C270.64 300.226 268.352 297.873 266.212 295.388L415.841 153.47C418.461 155.508 420.95 157.677 423.361 159.971C428.06 164.428 432.287 169.2 435.919 174.228" fill="white"/>
</g>
<defs>
<linearGradient id="paint0_linear_3210_13358" x1="372.74" y1="268.458" x2="346.252" y2="316.479" gradientUnits="userSpaceOnUse">
<stop stop-color="#608DFF"/>
<stop offset="1" stop-color="#62BDFF"/>
</linearGradient>
</defs>
</svg>
